<svg height="24" viewBox="0 0 24 24" width="24" xmlns="http://www.w3.org/2000/svg"><g fill="#752438"><path d="m20 5h1v2h-1z"/><path d="m19 6h1v2h-1z"/><path d="m21 3h1v2h-1z"/><path d="m5 13h1v1h-1z"/><path d="m10 19h1v1h-1z"/><path d="m14 15h1v1h-1z"/><path d="m13 16h1v1h-1z"/><path d="m12 17h1v1h-1z"/><path d="m4 14h1v1h-1z"/><path d="m17 6h1v1h-1z"/></g><g fill="#73bed3"><path d="m11 7h1v1h-1z"/><path d="m12 6h1v1h-1z"/><path d="m13 5h1v1h-1z"/><path d="m9 9h1v1h-1z"/><path d="m10 8h1v1h-1z"/></g><g fill="#172038"><path d="m9 12h1v1h-1z"/><path d="m16 12h1v1h-1z"/><path d="m12 15h1v2h-1z"/><path d="m15 13h1v1h-1z"/><path d="m13 15h1v1h-1z"/><path d="m8 11h1v1h-1z"/><path d="m17 11h1v1h-1z"/><path d="m10 17h2v1h-2z"/><path d="m6 14h1v1h-1z"/><path d="m11 14h1v1h-1z"/><path d="m14 14h1v1h-1z"/><path d="m18 10h1v1h-1z"/></g><g fill="#be772b"><path d="m8 19h1v2h-1z"/><path d="m5 20h2v1h-2z"/><path d="m9 18h1v1h-1z"/><path d="m5 16h1v1h-1z"/></g><g fill="#da863e"><path d="m17 2h3v1h-3z"/><path d="m15 4h1v1h-1z"/><path d="m16 3h1v1h-1z"/></g><g fill="#cf573c"><path d="m6 10h1v1h-1z"/><path d="m4 12h1v1h-1z"/><path d="m10 20h1v1h-1z"/><path d="m3 13h1v1h-1z"/><path d="m9 13h1v1h-1z"/><path d="m20 2h2v1h-2z"/><path d="m11 19h1v1h-1z"/><path d="m6 16h1v1h-1z"/><path d="m14 16h1v1h-1z"/><path d="m7 15h1v1h-1z"/><path d="m13 17h1v1h-1z"/><path d="m18 3h1v1h-1z"/><path d="m5 11h1v1h-1z"/><path d="m2 14h1v1h-1z"/><path d="m8 14h1v1h-1z"/><path d="m17 3h1v2h-1z"/><path d="m12 18h1v1h-1z"/></g><g fill="#3c5e8b"><path d="m11 9h1v3h-1z"/><path d="m7 14h1v1h-1z"/><path d="m15 11h1v1h-1z"/><path d="m11 15h1v1h-1z"/><path d="m14 10h1v3h-1z"/><path d="m12 8h1v5h-1z"/><path d="m8 12h1v2h-1z"/><path d="m13 7h1v1h-1z"/><path d="m16 7h1v4h-1z"/><path d="m6 13h1v1h-1z"/><path d="m15 6h1v2h-1z"/><path d="m13 11h1v3h-1z"/><path d="m14 6h1v3h-1z"/><path d="m13 9h1v1h-1z"/><path d="m15 9h1v1h-1z"/><path d="m17 8h1v2h-1z"/><path d="m10 15h1v2h-1z"/><path d="m8 10h1v1h-1z"/><path d="m10 10h1v1h-1z"/></g><g fill="#253a5e"><path d="m17 10h1v1h-1z"/><path d="m11 13h1v1h-1z"/><path d="m14 13h1v1h-1z"/><path d="m18 9h1v1h-1z"/><path d="m9 16h1v1h-1z"/><path d="m11 16h1v1h-1z"/><path d="m7 12h1v2h-1z"/><path d="m12 14h1v1h-1z"/><path d="m9 11h1v1h-1z"/><path d="m16 11h1v1h-1z"/><path d="m10 12h1v1h-1z"/><path d="m15 12h1v1h-1z"/></g><g fill="#e8c170"><path d="m8 17h1v1h-1z"/><path d="m6 15h1v1h-1z"/><path d="m4 19h1v2h-1z"/><path d="m5 18h1v2h-1z"/><path d="m3 20h1v2h-1z"/><path d="m7 18h1v1h-1z"/></g><g fill="#241527"><path d="m20 7h1v1h-1z"/><path d="m18 8h1v1h-1z"/><path d="m19 8h1v2h-1z"/><path d="m21 5h1v2h-1z"/></g><g fill="#602c2c"><path d="m9 17h1v1h-1z"/><path d="m6 18h1v1h-1z"/></g><g fill="#4f8fba"><path d="m11 8h1v1h-1z"/><path d="m7 11h1v1h-1z"/><path d="m10 11h1v1h-1z"/><path d="m13 6h1v1h-1z"/><path d="m13 14h1v1h-1z"/><path d="m9 10h1v1h-1z"/><path d="m6 12h1v1h-1z"/><path d="m11 12h1v1h-1z"/><path d="m14 5h1v1h-1z"/><path d="m10 9h1v1h-1z"/><path d="m12 13h1v1h-1z"/><path d="m12 7h1v1h-1z"/></g><g fill="#a53030"><path d="m19 3h1v3h-1z"/><path d="m6 11h1v1h-1z"/><path d="m6 17h1v1h-1z"/><path d="m14 17h1v1h-1z"/><path d="m13 18h1v1h-1z"/><path d="m20 3h1v2h-1z"/><path d="m3 14h1v1h-1z"/><path d="m9 14h1v1h-1z"/><path d="m12 19h1v1h-1z"/><path d="m8 15h1v1h-1z"/><path d="m7 16h1v1h-1z"/><path d="m4 13h1v1h-1z"/><path d="m10 13h1v1h-1z"/><path d="m18 4h1v3h-1z"/><path d="m7 10h1v1h-1z"/><path d="m16 4h1v2h-1z"/><path d="m11 20h1v1h-1z"/><path d="m17 5h1v1h-1z"/><path d="m5 12h1v1h-1z"/><path d="m10 21h1v1h-1z"/><path d="m14 4h1v1h-1z"/></g><g fill="#411d31"><path d="m15 5h1v1h-1z"/><path d="m8 16h1v1h-1z"/><path d="m9 15h1v1h-1z"/><path d="m17 7h2v1h-2z"/><path d="m16 6h1v1h-1z"/><path d="m5 14h1v1h-1z"/><path d="m10 14h1v1h-1z"/><path d="m10 18h2v1h-2z"/><path d="m7 17h1v1h-1z"/></g><g fill="#a4dddb"><path d="m13 10h1v1h-1z"/><path d="m15 10h1v1h-1z"/><path d="m13 8h1v1h-1z"/><path d="m15 8h1v1h-1z"/><path d="m14 9h1v1h-1z"/></g><g fill="#de9e41"><path d="m4 18h1v1h-1z"/><path d="m8 18h1v1h-1z"/><path d="m5 17h1v1h-1z"/><path d="m3 19h1v1h-1z"/><path d="m6 19h2v1h-2z"/></g></svg>